<svg xmlns="http://www.w3.org/2000/svg" xmlns:xlink="http://www.w3.org/1999/xlink" width="294" zoomAndPan="magnify" viewBox="0 0 220.5 266.999984" height="356" preserveAspectRatio="xMidYMid meet" version="1.0"><defs><g/><clipPath id="fde934e8d1"><path d="M 0 0.300781 L 220 0.300781 L 220 266.695312 L 0 266.695312 Z M 0 0.300781 " clip-rule="nonzero"/></clipPath><clipPath id="5b1e7309b4"><path d="M 23.839844 45.730469 L 193.214844 45.730469 L 193.214844 215.105469 L 23.839844 215.105469 Z M 23.839844 45.730469 " clip-rule="nonzero"/></clipPath><clipPath id="f55fcd0dca"><path d="M 108.527344 45.730469 C 61.753906 45.730469 23.839844 83.644531 23.839844 130.417969 C 23.839844 177.1875 61.753906 215.105469 108.527344 215.105469 C 155.300781 215.105469 193.214844 177.1875 193.214844 130.417969 C 193.214844 83.644531 155.300781 45.730469 108.527344 45.730469 Z M 108.527344 45.730469 " clip-rule="nonzero"/></clipPath><clipPath id="7783622b1f"><path d="M 135.25 100.484375 L 165.183594 100.484375 L 165.183594 130.417969 L 135.25 130.417969 Z M 135.25 100.484375 " clip-rule="nonzero"/></clipPath><clipPath id="7a0c8570b4"><path d="M 150.21875 100.484375 C 141.953125 100.484375 135.25 107.183594 135.25 115.449219 C 135.25 123.714844 141.953125 130.417969 150.21875 130.417969 C 158.484375 130.417969 165.183594 123.714844 165.183594 115.449219 C 165.183594 107.183594 158.484375 100.484375 150.21875 100.484375 Z M 150.21875 100.484375 " clip-rule="nonzero"/></clipPath></defs><g clip-path="url(#fde934e8d1)"><path fill="#ffffff" d="M 0 0.300781 L 220 0.300781 L 220 266.699219 L 0 266.699219 Z M 0 0.300781 " fill-opacity="1" fill-rule="nonzero"/></g><g clip-path="url(#5b1e7309b4)"><g clip-path="url(#f55fcd0dca)"><path fill="#2c2c2c" d="M 23.839844 45.730469 L 193.214844 45.730469 L 193.214844 215.105469 L 23.839844 215.105469 Z M 23.839844 45.730469 " fill-opacity="1" fill-rule="nonzero"/></g></g><g fill="#000000" fill-opacity="1"><g transform="translate(7.945973, 254.25703)"><g><path d="M 4.15625 0.125 C 3.269531 0.125 2.453125 -0.0625 1.703125 -0.4375 C 0.960938 -0.820312 0.359375 -1.363281 -0.109375 -2.0625 L 0.859375 -3.15625 C 1.703125 -1.894531 2.804688 -1.265625 4.171875 -1.265625 C 6.078125 -1.265625 7.03125 -2.394531 7.03125 -4.65625 L 7.03125 -13.96875 L 1.40625 -13.96875 L 1.40625 -15.359375 L 8.625 -15.359375 L 8.625 -4.71875 C 8.625 -3.113281 8.242188 -1.90625 7.484375 -1.09375 C 6.734375 -0.28125 5.625 0.125 4.15625 0.125 Z M 4.15625 0.125 "/></g></g></g><g fill="#000000" fill-opacity="1"><g transform="translate(22.12385, 254.25703)"><g><path d="M 8.0625 -11.640625 C 9.507812 -11.640625 10.660156 -11.21875 11.515625 -10.375 C 12.367188 -9.53125 12.796875 -8.304688 12.796875 -6.703125 L 12.796875 0 L 11.234375 0 L 11.234375 -6.546875 C 11.234375 -7.742188 10.929688 -8.65625 10.328125 -9.28125 C 9.734375 -9.914062 8.878906 -10.234375 7.765625 -10.234375 C 6.523438 -10.234375 5.539062 -9.863281 4.8125 -9.125 C 4.09375 -8.382812 3.734375 -7.363281 3.734375 -6.0625 L 3.734375 0 L 2.171875 0 L 2.171875 -16.296875 L 3.734375 -16.296875 L 3.734375 -9.53125 C 4.160156 -10.195312 4.742188 -10.710938 5.484375 -11.078125 C 6.234375 -11.453125 7.09375 -11.640625 8.0625 -11.640625 Z M 8.0625 -11.640625 "/></g></g></g><g fill="#000000" fill-opacity="1"><g transform="translate(40.164287, 254.25703)"><g><path d="M 6.890625 0.109375 C 5.773438 0.109375 4.769531 -0.140625 3.875 -0.640625 C 2.988281 -1.148438 2.289062 -1.847656 1.78125 -2.734375 C 1.269531 -3.628906 1.015625 -4.644531 1.015625 -5.78125 C 1.015625 -6.90625 1.269531 -7.910156 1.78125 -8.796875 C 2.289062 -9.691406 2.988281 -10.390625 3.875 -10.890625 C 4.769531 -11.390625 5.773438 -11.640625 6.890625 -11.640625 C 8.003906 -11.640625 9.003906 -11.390625 9.890625 -10.890625 C 10.785156 -10.390625 11.484375 -9.691406 11.984375 -8.796875 C 12.492188 -7.910156 12.75 -6.90625 12.75 -5.78125 C 12.75 -4.644531 12.492188 -3.628906 11.984375 -2.734375 C 11.484375 -1.847656 10.785156 -1.148438 9.890625 -0.640625 C 9.003906 -0.140625 8.003906 0.109375 6.890625 0.109375 Z M 6.890625 -1.265625 C 7.710938 -1.265625 8.445312 -1.453125 9.09375 -1.828125 C 9.75 -2.203125 10.257812 -2.734375 10.625 -3.421875 C 10.988281 -4.109375 11.171875 -4.894531 11.171875 -5.78125 C 11.171875 -6.65625 10.988281 -7.4375 10.625 -8.125 C 10.257812 -8.8125 9.75 -9.34375 9.09375 -9.71875 C 8.445312 -10.09375 7.710938 -10.28125 6.890625 -10.28125 C 6.066406 -10.28125 5.328125 -10.09375 4.671875 -9.71875 C 4.023438 -9.34375 3.515625 -8.8125 3.140625 -8.125 C 2.773438 -7.4375 2.59375 -6.65625 2.59375 -5.78125 C 2.59375 -4.894531 2.773438 -4.109375 3.140625 -3.421875 C 3.515625 -2.734375 4.023438 -2.203125 4.671875 -1.828125 C 5.328125 -1.453125 6.066406 -1.265625 6.890625 -1.265625 Z M 6.890625 -1.265625 "/></g></g></g><g fill="#000000" fill-opacity="1"><g transform="translate(57.107402, 254.25703)"><g><path d="M 12.703125 -16.296875 L 12.703125 0 L 11.21875 0 L 11.21875 -2.28125 C 10.75 -1.507812 10.128906 -0.914062 9.359375 -0.5 C 8.585938 -0.09375 7.722656 0.109375 6.765625 0.109375 C 5.679688 0.109375 4.695312 -0.140625 3.8125 -0.640625 C 2.9375 -1.140625 2.25 -1.832031 1.75 -2.71875 C 1.257812 -3.613281 1.015625 -4.632812 1.015625 -5.78125 C 1.015625 -6.914062 1.257812 -7.929688 1.75 -8.828125 C 2.25 -9.722656 2.9375 -10.414062 3.8125 -10.90625 C 4.695312 -11.394531 5.679688 -11.640625 6.765625 -11.640625 C 7.703125 -11.640625 8.546875 -11.441406 9.296875 -11.046875 C 10.046875 -10.660156 10.664062 -10.097656 11.15625 -9.359375 L 11.15625 -16.296875 Z M 6.890625 -1.265625 C 7.691406 -1.265625 8.414062 -1.453125 9.0625 -1.828125 C 9.71875 -2.203125 10.234375 -2.734375 10.609375 -3.421875 C 10.984375 -4.109375 11.171875 -4.894531 11.171875 -5.78125 C 11.171875 -6.65625 10.984375 -7.4375 10.609375 -8.125 C 10.234375 -8.8125 9.71875 -9.34375 9.0625 -9.71875 C 8.414062 -10.09375 7.691406 -10.28125 6.890625 -10.28125 C 6.066406 -10.28125 5.328125 -10.09375 4.671875 -9.71875 C 4.023438 -9.34375 3.515625 -8.8125 3.140625 -8.125 C 2.773438 -7.4375 2.59375 -6.65625 2.59375 -5.78125 C 2.59375 -4.894531 2.773438 -4.109375 3.140625 -3.421875 C 3.515625 -2.734375 4.023438 -2.203125 4.671875 -1.828125 C 5.328125 -1.453125 6.066406 -1.265625 6.890625 -1.265625 Z M 6.890625 -1.265625 "/></g></g></g><g fill="#000000" fill-opacity="1"><g transform="translate(75.169784, 254.25703)"><g><path d="M 11.875 -11.546875 L 6.109375 1.390625 C 5.640625 2.460938 5.097656 3.226562 4.484375 3.6875 C 3.867188 4.144531 3.128906 4.375 2.265625 4.375 C 1.703125 4.375 1.179688 4.285156 0.703125 4.109375 C 0.222656 3.929688 -0.191406 3.664062 -0.546875 3.3125 L 0.171875 2.15625 C 0.753906 2.738281 1.457031 3.03125 2.28125 3.03125 C 2.8125 3.03125 3.257812 2.882812 3.625 2.59375 C 4 2.300781 4.347656 1.800781 4.671875 1.09375 L 5.1875 -0.015625 L 0.015625 -11.546875 L 1.640625 -11.546875 L 6 -1.734375 L 10.34375 -11.546875 Z M 11.875 -11.546875 "/></g></g></g><g fill="#000000" fill-opacity="1"><g transform="translate(90.24746, 254.25703)"><g/></g></g><g fill="#000000" fill-opacity="1"><g transform="translate(99.180169, 254.25703)"><g><path d="M 2.5 -15.359375 L 4.125 -15.359375 L 4.125 -1.40625 L 12.734375 -1.40625 L 12.734375 0 L 2.5 0 Z M 2.5 -15.359375 "/></g></g></g><g fill="#000000" fill-opacity="1"><g transform="translate(115.289336, 254.25703)"><g><path d="M 6.21875 -11.640625 C 7.71875 -11.640625 8.867188 -11.257812 9.671875 -10.5 C 10.484375 -9.75 10.890625 -8.632812 10.890625 -7.15625 L 10.890625 0 L 9.390625 0 L 9.390625 -1.796875 C 9.046875 -1.203125 8.53125 -0.734375 7.84375 -0.390625 C 7.164062 -0.0546875 6.359375 0.109375 5.421875 0.109375 C 4.128906 0.109375 3.101562 -0.195312 2.34375 -0.8125 C 1.582031 -1.425781 1.203125 -2.238281 1.203125 -3.25 C 1.203125 -4.226562 1.554688 -5.015625 2.265625 -5.609375 C 2.984375 -6.210938 4.113281 -6.515625 5.65625 -6.515625 L 9.328125 -6.515625 L 9.328125 -7.21875 C 9.328125 -8.21875 9.046875 -8.976562 8.484375 -9.5 C 7.929688 -10.019531 7.125 -10.28125 6.0625 -10.28125 C 5.332031 -10.28125 4.628906 -10.15625 3.953125 -9.90625 C 3.273438 -9.664062 2.695312 -9.332031 2.21875 -8.90625 L 1.515625 -10.078125 C 2.097656 -10.578125 2.800781 -10.960938 3.625 -11.234375 C 4.445312 -11.503906 5.3125 -11.640625 6.21875 -11.640625 Z M 5.65625 -1.125 C 6.539062 -1.125 7.296875 -1.320312 7.921875 -1.71875 C 8.554688 -2.125 9.023438 -2.707031 9.328125 -3.46875 L 9.328125 -5.359375 L 5.703125 -5.359375 C 3.734375 -5.359375 2.75 -4.671875 2.75 -3.296875 C 2.75 -2.617188 3.003906 -2.085938 3.515625 -1.703125 C 4.023438 -1.316406 4.738281 -1.125 5.65625 -1.125 Z M 5.65625 -1.125 "/></g></g></g><g fill="#000000" fill-opacity="1"><g transform="translate(131.420444, 254.25703)"><g><path d="M 12.859375 -11.546875 L 12.859375 -1.40625 C 12.859375 0.550781 12.378906 2.003906 11.421875 2.953125 C 10.460938 3.898438 9.019531 4.375 7.09375 4.375 C 6.019531 4.375 5.003906 4.210938 4.046875 3.890625 C 3.085938 3.578125 2.3125 3.144531 1.71875 2.59375 L 2.5 1.40625 C 3.0625 1.90625 3.738281 2.289062 4.53125 2.5625 C 5.332031 2.84375 6.171875 2.984375 7.046875 2.984375 C 8.515625 2.984375 9.59375 2.640625 10.28125 1.953125 C 10.96875 1.273438 11.3125 0.222656 11.3125 -1.203125 L 11.3125 -2.671875 C 10.820312 -1.941406 10.1875 -1.382812 9.40625 -1 C 8.625 -0.625 7.757812 -0.4375 6.8125 -0.4375 C 5.726562 -0.4375 4.742188 -0.671875 3.859375 -1.140625 C 2.972656 -1.617188 2.273438 -2.285156 1.765625 -3.140625 C 1.265625 -4.003906 1.015625 -4.976562 1.015625 -6.0625 C 1.015625 -7.144531 1.265625 -8.109375 1.765625 -8.953125 C 2.273438 -9.804688 2.96875 -10.46875 3.84375 -10.9375 C 4.71875 -11.40625 5.707031 -11.640625 6.8125 -11.640625 C 7.789062 -11.640625 8.671875 -11.441406 9.453125 -11.046875 C 10.242188 -10.648438 10.882812 -10.078125 11.375 -9.328125 L 11.375 -11.546875 Z M 6.953125 -1.828125 C 7.785156 -1.828125 8.539062 -2.003906 9.21875 -2.359375 C 9.894531 -2.710938 10.414062 -3.210938 10.78125 -3.859375 C 11.15625 -4.503906 11.34375 -5.238281 11.34375 -6.0625 C 11.34375 -6.875 11.15625 -7.597656 10.78125 -8.234375 C 10.414062 -8.878906 9.898438 -9.378906 9.234375 -9.734375 C 8.566406 -10.097656 7.804688 -10.28125 6.953125 -10.28125 C 6.117188 -10.28125 5.367188 -10.101562 4.703125 -9.75 C 4.035156 -9.394531 3.515625 -8.894531 3.140625 -8.25 C 2.773438 -7.601562 2.59375 -6.875 2.59375 -6.0625 C 2.59375 -5.238281 2.773438 -4.503906 3.140625 -3.859375 C 3.515625 -3.210938 4.035156 -2.710938 4.703125 -2.359375 C 5.367188 -2.003906 6.117188 -1.828125 6.953125 -1.828125 Z M 6.953125 -1.828125 "/></g></g></g><g fill="#000000" fill-opacity="1"><g transform="translate(149.658391, 254.25703)"><g><path d="M 6.21875 -11.640625 C 7.71875 -11.640625 8.867188 -11.257812 9.671875 -10.5 C 10.484375 -9.75 10.890625 -8.632812 10.890625 -7.15625 L 10.890625 0 L 9.390625 0 L 9.390625 -1.796875 C 9.046875 -1.203125 8.53125 -0.734375 7.84375 -0.390625 C 7.164062 -0.0546875 6.359375 0.109375 5.421875 0.109375 C 4.128906 0.109375 3.101562 -0.195312 2.34375 -0.8125 C 1.582031 -1.425781 1.203125 -2.238281 1.203125 -3.25 C 1.203125 -4.226562 1.554688 -5.015625 2.265625 -5.609375 C 2.984375 -6.210938 4.113281 -6.515625 5.65625 -6.515625 L 9.328125 -6.515625 L 9.328125 -7.21875 C 9.328125 -8.21875 9.046875 -8.976562 8.484375 -9.5 C 7.929688 -10.019531 7.125 -10.28125 6.0625 -10.28125 C 5.332031 -10.28125 4.628906 -10.15625 3.953125 -9.90625 C 3.273438 -9.664062 2.695312 -9.332031 2.21875 -8.90625 L 1.515625 -10.078125 C 2.097656 -10.578125 2.800781 -10.960938 3.625 -11.234375 C 4.445312 -11.503906 5.3125 -11.640625 6.21875 -11.640625 Z M 5.65625 -1.125 C 6.539062 -1.125 7.296875 -1.320312 7.921875 -1.71875 C 8.554688 -2.125 9.023438 -2.707031 9.328125 -3.46875 L 9.328125 -5.359375 L 5.703125 -5.359375 C 3.734375 -5.359375 2.75 -4.671875 2.75 -3.296875 C 2.75 -2.617188 3.003906 -2.085938 3.515625 -1.703125 C 4.023438 -1.316406 4.738281 -1.125 5.65625 -1.125 Z M 5.65625 -1.125 "/></g></g></g><g fill="#000000" fill-opacity="1"><g transform="translate(165.789499, 254.25703)"><g><path d="M 3.671875 -9.28125 C 4.035156 -10.0625 4.578125 -10.648438 5.296875 -11.046875 C 6.023438 -11.441406 6.921875 -11.640625 7.984375 -11.640625 L 7.984375 -10.125 L 7.625 -10.140625 C 6.40625 -10.140625 5.453125 -9.765625 4.765625 -9.015625 C 4.078125 -8.273438 3.734375 -7.234375 3.734375 -5.890625 L 3.734375 0 L 2.171875 0 L 2.171875 -11.546875 L 3.671875 -11.546875 Z M 3.671875 -9.28125 "/></g></g></g><g fill="#000000" fill-opacity="1"><g transform="translate(177.772751, 254.25703)"><g><path d="M 12.703125 -16.296875 L 12.703125 0 L 11.21875 0 L 11.21875 -2.28125 C 10.75 -1.507812 10.128906 -0.914062 9.359375 -0.5 C 8.585938 -0.09375 7.722656 0.109375 6.765625 0.109375 C 5.679688 0.109375 4.695312 -0.140625 3.8125 -0.640625 C 2.9375 -1.140625 2.25 -1.832031 1.75 -2.71875 C 1.257812 -3.613281 1.015625 -4.632812 1.015625 -5.78125 C 1.015625 -6.914062 1.257812 -7.929688 1.75 -8.828125 C 2.25 -9.722656 2.9375 -10.414062 3.8125 -10.90625 C 4.695312 -11.394531 5.679688 -11.640625 6.765625 -11.640625 C 7.703125 -11.640625 8.546875 -11.441406 9.296875 -11.046875 C 10.046875 -10.660156 10.664062 -10.097656 11.15625 -9.359375 L 11.15625 -16.296875 Z M 6.890625 -1.265625 C 7.691406 -1.265625 8.414062 -1.453125 9.0625 -1.828125 C 9.71875 -2.203125 10.234375 -2.734375 10.609375 -3.421875 C 10.984375 -4.109375 11.171875 -4.894531 11.171875 -5.78125 C 11.171875 -6.65625 10.984375 -7.4375 10.609375 -8.125 C 10.234375 -8.8125 9.71875 -9.34375 9.0625 -9.71875 C 8.414062 -10.09375 7.691406 -10.28125 6.890625 -10.28125 C 6.066406 -10.28125 5.328125 -10.09375 4.671875 -9.71875 C 4.023438 -9.34375 3.515625 -8.8125 3.140625 -8.125 C 2.773438 -7.4375 2.59375 -6.65625 2.59375 -5.78125 C 2.59375 -4.894531 2.773438 -4.109375 3.140625 -3.421875 C 3.515625 -2.734375 4.023438 -2.203125 4.671875 -1.828125 C 5.328125 -1.453125 6.066406 -1.265625 6.890625 -1.265625 Z M 6.890625 -1.265625 "/></g></g></g><g fill="#000000" fill-opacity="1"><g transform="translate(195.835132, 254.25703)"><g><path d="M 12.234375 -5.296875 L 2.5625 -5.296875 C 2.65625 -4.085938 3.117188 -3.113281 3.953125 -2.375 C 4.785156 -1.632812 5.835938 -1.265625 7.109375 -1.265625 C 7.828125 -1.265625 8.484375 -1.394531 9.078125 -1.65625 C 9.679688 -1.914062 10.203125 -2.289062 10.640625 -2.78125 L 11.53125 -1.78125 C 11.007812 -1.164062 10.363281 -0.695312 9.59375 -0.375 C 8.832031 -0.0507812 7.988281 0.109375 7.0625 0.109375 C 5.882812 0.109375 4.835938 -0.140625 3.921875 -0.640625 C 3.003906 -1.148438 2.289062 -1.847656 1.78125 -2.734375 C 1.269531 -3.628906 1.015625 -4.644531 1.015625 -5.78125 C 1.015625 -6.90625 1.257812 -7.910156 1.75 -8.796875 C 2.238281 -9.691406 2.910156 -10.390625 3.765625 -10.890625 C 4.617188 -11.390625 5.582031 -11.640625 6.65625 -11.640625 C 7.71875 -11.640625 8.671875 -11.390625 9.515625 -10.890625 C 10.367188 -10.390625 11.035156 -9.695312 11.515625 -8.8125 C 12.003906 -7.925781 12.25 -6.914062 12.25 -5.78125 Z M 6.65625 -10.296875 C 5.539062 -10.296875 4.601562 -9.941406 3.84375 -9.234375 C 3.09375 -8.523438 2.664062 -7.597656 2.5625 -6.453125 L 10.75 -6.453125 C 10.65625 -7.597656 10.226562 -8.523438 9.46875 -9.234375 C 8.71875 -9.941406 7.78125 -10.296875 6.65625 -10.296875 Z M 6.65625 -10.296875 "/></g></g></g><g fill="#f5f5f5" fill-opacity="1"><g transform="translate(55.581989, 174.187761)"><g><path d="M 26.390625 0.84375 C 20.804688 0.84375 15.640625 -0.363281 10.890625 -2.78125 C 6.140625 -5.207031 2.273438 -8.65625 -0.703125 -13.125 L 5.453125 -20.109375 C 10.847656 -12.097656 17.875 -8.09375 26.53125 -8.09375 C 38.632812 -8.09375 44.6875 -15.265625 44.6875 -29.609375 L 44.6875 -88.828125 L 8.9375 -88.828125 L 8.9375 -97.765625 L 54.890625 -97.765625 L 54.890625 -30.03125 C 54.890625 -19.789062 52.488281 -12.082031 47.6875 -6.90625 C 42.894531 -1.738281 35.796875 0.84375 26.390625 0.84375 Z M 26.390625 0.84375 "/></g></g></g><g fill="#f5f5f5" fill-opacity="0.302"><g transform="translate(97.780347, 180.550367)"><g><path d="M 14.390625 -88.359375 L 23.734375 -88.359375 L 23.734375 -8.078125 L 73.203125 -8.078125 L 73.203125 0 L 14.390625 0 Z M 14.390625 -88.359375 "/></g></g></g><g fill="#f5f5f5" fill-opacity="0.502"><g transform="translate(92.201902, 174.971922)"><g><path d="M 14.390625 -88.359375 L 23.734375 -88.359375 L 23.734375 -8.078125 L 73.203125 -8.078125 L 73.203125 0 L 14.390625 0 Z M 14.390625 -88.359375 "/></g></g></g><g fill="#f5f5f5" fill-opacity="1"><g transform="translate(86.623454, 169.393475)"><g><path d="M 14.390625 -88.359375 L 23.734375 -88.359375 L 23.734375 -8.078125 L 73.203125 -8.078125 L 73.203125 0 L 14.390625 0 Z M 14.390625 -88.359375 "/></g></g></g><g clip-path="url(#7783622b1f)"><g clip-path="url(#7a0c8570b4)"><path fill="#f5f5f5" d="M 135.25 100.484375 L 165.183594 100.484375 L 165.183594 130.417969 L 135.25 130.417969 Z M 135.25 100.484375 " fill-opacity="1" fill-rule="nonzero"/></g></g></svg>