<svg xmlns="http://www.w3.org/2000/svg" xmlns:xlink="http://www.w3.org/1999/xlink" width="615" zoomAndPan="magnify" viewBox="0 0 461.25 534.000001" height="712" preserveAspectRatio="xMidYMid meet" version="1.0"><defs><g/><clipPath id="fa2b03615b"><path d="M 40.460938 97.515625 L 404.054688 97.515625 L 404.054688 461.105469 L 40.460938 461.105469 Z M 40.460938 97.515625 " clip-rule="nonzero"/></clipPath><clipPath id="8dee1b54dd"><path d="M 222.257812 97.515625 C 121.855469 97.515625 40.460938 178.90625 40.460938 279.308594 C 40.460938 379.714844 121.855469 461.105469 222.257812 461.105469 C 322.660156 461.105469 404.054688 379.714844 404.054688 279.308594 C 404.054688 178.90625 322.660156 97.515625 222.257812 97.515625 Z M 222.257812 97.515625 " clip-rule="nonzero"/></clipPath><clipPath id="12e6696dd3"><path d="M 279.625 215.058594 L 343.878906 215.058594 L 343.878906 279.308594 L 279.625 279.308594 Z M 279.625 215.058594 " clip-rule="nonzero"/></clipPath><clipPath id="d1afcc9814"><path d="M 311.75 215.058594 C 294.007812 215.058594 279.625 229.441406 279.625 247.183594 C 279.625 264.925781 294.007812 279.308594 311.75 279.308594 C 329.496094 279.308594 343.878906 264.925781 343.878906 247.183594 C 343.878906 229.441406 329.496094 215.058594 311.75 215.058594 Z M 311.75 215.058594 " clip-rule="nonzero"/></clipPath></defs><g clip-path="url(#fa2b03615b)"><g clip-path="url(#8dee1b54dd)"><path fill="#2c2c2c" d="M 40.460938 97.515625 L 404.054688 97.515625 L 404.054688 461.105469 L 40.460938 461.105469 Z M 40.460938 97.515625 " fill-opacity="1" fill-rule="nonzero"/></g></g><g fill="#f5f5f5" fill-opacity="1"><g transform="translate(108.602748, 373.270797)"><g><path d="M 56.671875 1.796875 C 44.679688 1.796875 33.585938 -0.800781 23.390625 -6 C 13.191406 -11.195312 4.894531 -18.59375 -1.5 -28.1875 L 11.6875 -43.171875 C 23.28125 -25.984375 38.375 -17.390625 56.96875 -17.390625 C 82.957031 -17.390625 95.953125 -32.78125 95.953125 -63.5625 L 95.953125 -190.703125 L 19.1875 -190.703125 L 19.1875 -209.890625 L 117.84375 -209.890625 L 117.84375 -64.46875 C 117.84375 -42.476562 112.691406 -25.9375 102.390625 -14.84375 C 92.097656 -3.75 76.859375 1.796875 56.671875 1.796875 Z M 56.671875 1.796875 "/></g></g></g><g fill="#f5f5f5" fill-opacity="0.302"><g transform="translate(199.187596, 386.929042)"><g><path d="M 30.890625 -189.671875 L 50.9375 -189.671875 L 50.9375 -17.34375 L 157.15625 -17.34375 L 157.15625 0 L 30.890625 0 Z M 30.890625 -189.671875 "/></g></g></g><g fill="#f5f5f5" fill-opacity="0.502"><g transform="translate(187.212659, 374.954105)"><g><path d="M 30.890625 -189.671875 L 50.9375 -189.671875 L 50.9375 -17.34375 L 157.15625 -17.34375 L 157.15625 0 L 30.890625 0 Z M 30.890625 -189.671875 "/></g></g></g><g fill="#f5f5f5" fill-opacity="1"><g transform="translate(175.23772, 362.979166)"><g><path d="M 30.890625 -189.671875 L 50.9375 -189.671875 L 50.9375 -17.34375 L 157.15625 -17.34375 L 157.15625 0 L 30.890625 0 Z M 30.890625 -189.671875 "/></g></g></g><g clip-path="url(#12e6696dd3)"><g clip-path="url(#d1afcc9814)"><path fill="#f5f5f5" d="M 279.625 215.058594 L 343.878906 215.058594 L 343.878906 279.308594 L 279.625 279.308594 Z M 279.625 215.058594 " fill-opacity="1" fill-rule="nonzero"/></g></g></svg>