<svg xmlns="http://www.w3.org/2000/svg" xmlns:xlink="http://www.w3.org/1999/xlink" width="269" zoomAndPan="magnify" viewBox="0 0 201.75 45.749998" height="61" preserveAspectRatio="xMidYMid meet" version="1.0"><defs><g/><clipPath id="bd55aebe09"><path d="M 3.847656 8.265625 L 34.660156 8.265625 L 34.660156 39.078125 L 3.847656 39.078125 Z M 3.847656 8.265625 " clip-rule="nonzero"/></clipPath><clipPath id="a672ba785a"><path d="M 19.253906 8.265625 C 10.746094 8.265625 3.847656 15.160156 3.847656 23.671875 C 3.847656 32.179688 10.746094 39.078125 19.253906 39.078125 C 27.765625 39.078125 34.660156 32.179688 34.660156 23.671875 C 34.660156 15.160156 27.765625 8.265625 19.253906 8.265625 Z M 19.253906 8.265625 " clip-rule="nonzero"/></clipPath><clipPath id="eb88d0a001"><path d="M 24.117188 18.226562 L 29.5625 18.226562 L 29.5625 23.671875 L 24.117188 23.671875 Z M 24.117188 18.226562 " clip-rule="nonzero"/></clipPath><clipPath id="da858b3558"><path d="M 26.839844 18.226562 C 25.335938 18.226562 24.117188 19.445312 24.117188 20.949219 C 24.117188 22.453125 25.335938 23.671875 26.839844 23.671875 C 28.34375 23.671875 29.5625 22.453125 29.5625 20.949219 C 29.5625 19.445312 28.34375 18.226562 26.839844 18.226562 Z M 26.839844 18.226562 " clip-rule="nonzero"/></clipPath></defs><g clip-path="url(#bd55aebe09)"><g clip-path="url(#a672ba785a)"><path fill="#2c2c2c" d="M 3.847656 8.265625 L 34.660156 8.265625 L 34.660156 39.078125 L 3.847656 39.078125 Z M 3.847656 8.265625 " fill-opacity="1" fill-rule="nonzero"/></g></g><g fill="#f5f5f5" fill-opacity="1"><g transform="translate(9.622923, 31.633789)"><g><path d="M 4.796875 0.15625 C 3.785156 0.15625 2.847656 -0.0625 1.984375 -0.5 C 1.117188 -0.945312 0.414062 -1.578125 -0.125 -2.390625 L 0.984375 -3.65625 C 1.972656 -2.195312 3.253906 -1.46875 4.828125 -1.46875 C 7.023438 -1.46875 8.125 -2.773438 8.125 -5.390625 L 8.125 -16.15625 L 1.625 -16.15625 L 1.625 -17.78125 L 9.984375 -17.78125 L 9.984375 -5.46875 C 9.984375 -3.601562 9.546875 -2.195312 8.671875 -1.25 C 7.804688 -0.3125 6.515625 0.15625 4.796875 0.15625 Z M 4.796875 0.15625 "/></g></g></g><g fill="#f5f5f5" fill-opacity="0.302"><g transform="translate(17.29977, 32.791292)"><g><path d="M 2.625 -16.078125 L 4.3125 -16.078125 L 4.3125 -1.46875 L 13.328125 -1.46875 L 13.328125 0 L 2.625 0 Z M 2.625 -16.078125 "/></g></g></g><g fill="#f5f5f5" fill-opacity="0.502"><g transform="translate(16.284923, 31.776446)"><g><path d="M 2.625 -16.078125 L 4.3125 -16.078125 L 4.3125 -1.46875 L 13.328125 -1.46875 L 13.328125 0 L 2.625 0 Z M 2.625 -16.078125 "/></g></g></g><g fill="#f5f5f5" fill-opacity="1"><g transform="translate(15.270076, 30.761599)"><g><path d="M 2.625 -16.078125 L 4.3125 -16.078125 L 4.3125 -1.46875 L 13.328125 -1.46875 L 13.328125 0 L 2.625 0 Z M 2.625 -16.078125 "/></g></g></g><g clip-path="url(#eb88d0a001)"><g clip-path="url(#da858b3558)"><path fill="#f5f5f5" d="M 24.117188 18.226562 L 29.5625 18.226562 L 29.5625 23.671875 L 24.117188 23.671875 Z M 24.117188 18.226562 " fill-opacity="1" fill-rule="nonzero"/></g></g><g fill="#2c2c2c" fill-opacity="1"><g transform="translate(48.770318, 28.519372)"><g><path d="M 3 0.09375 C 2.363281 0.09375 1.773438 -0.0390625 1.234375 -0.3125 C 0.691406 -0.59375 0.253906 -0.988281 -0.078125 -1.5 L 0.625 -2.296875 C 1.238281 -1.378906 2.035156 -0.921875 3.015625 -0.921875 C 4.398438 -0.921875 5.09375 -1.738281 5.09375 -3.375 L 5.09375 -10.109375 L 1.015625 -10.109375 L 1.015625 -11.140625 L 6.25 -11.140625 L 6.25 -3.421875 C 6.25 -2.253906 5.972656 -1.375 5.421875 -0.78125 C 4.878906 -0.195312 4.070312 0.09375 3 0.09375 Z M 3 0.09375 "/></g></g></g><g fill="#2c2c2c" fill-opacity="1"><g transform="translate(59.048252, 28.519372)"><g><path d="M 5.84375 -8.4375 C 6.882812 -8.4375 7.710938 -8.128906 8.328125 -7.515625 C 8.953125 -6.898438 9.265625 -6.007812 9.265625 -4.84375 L 9.265625 0 L 8.140625 0 L 8.140625 -4.734375 C 8.140625 -5.609375 7.921875 -6.269531 7.484375 -6.71875 C 7.054688 -7.175781 6.4375 -7.40625 5.625 -7.40625 C 4.726562 -7.40625 4.015625 -7.140625 3.484375 -6.609375 C 2.960938 -6.078125 2.703125 -5.335938 2.703125 -4.390625 L 2.703125 0 L 1.578125 0 L 1.578125 -11.796875 L 2.703125 -11.796875 L 2.703125 -6.90625 C 3.015625 -7.394531 3.4375 -7.769531 3.96875 -8.03125 C 4.507812 -8.300781 5.132812 -8.4375 5.84375 -8.4375 Z M 5.84375 -8.4375 "/></g></g></g><g fill="#2c2c2c" fill-opacity="1"><g transform="translate(72.1262, 28.519372)"><g><path d="M 5 0.078125 C 4.1875 0.078125 3.457031 -0.101562 2.8125 -0.46875 C 2.164062 -0.832031 1.65625 -1.335938 1.28125 -1.984375 C 0.914062 -2.628906 0.734375 -3.363281 0.734375 -4.1875 C 0.734375 -5 0.914062 -5.726562 1.28125 -6.375 C 1.65625 -7.019531 2.164062 -7.523438 2.8125 -7.890625 C 3.457031 -8.253906 4.1875 -8.4375 5 -8.4375 C 5.800781 -8.4375 6.523438 -8.253906 7.171875 -7.890625 C 7.816406 -7.523438 8.320312 -7.019531 8.6875 -6.375 C 9.050781 -5.726562 9.234375 -5 9.234375 -4.1875 C 9.234375 -3.363281 9.050781 -2.628906 8.6875 -1.984375 C 8.320312 -1.335938 7.816406 -0.832031 7.171875 -0.46875 C 6.523438 -0.101562 5.800781 0.078125 5 0.078125 Z M 5 -0.921875 C 5.59375 -0.921875 6.125 -1.054688 6.59375 -1.328125 C 7.0625 -1.597656 7.425781 -1.984375 7.6875 -2.484375 C 7.957031 -2.984375 8.09375 -3.550781 8.09375 -4.1875 C 8.09375 -4.820312 7.957031 -5.390625 7.6875 -5.890625 C 7.425781 -6.390625 7.0625 -6.769531 6.59375 -7.03125 C 6.125 -7.300781 5.59375 -7.4375 5 -7.4375 C 4.40625 -7.4375 3.867188 -7.300781 3.390625 -7.03125 C 2.921875 -6.769531 2.550781 -6.390625 2.28125 -5.890625 C 2.007812 -5.390625 1.875 -4.820312 1.875 -4.1875 C 1.875 -3.550781 2.007812 -2.984375 2.28125 -2.484375 C 2.550781 -1.984375 2.921875 -1.597656 3.390625 -1.328125 C 3.867188 -1.054688 4.40625 -0.921875 5 -0.921875 Z M 5 -0.921875 "/></g></g></g><g fill="#2c2c2c" fill-opacity="1"><g transform="translate(84.40869, 28.519372)"><g><path d="M 9.203125 -11.796875 L 9.203125 0 L 8.125 0 L 8.125 -1.65625 C 7.789062 -1.09375 7.34375 -0.660156 6.78125 -0.359375 C 6.226562 -0.0664062 5.601562 0.078125 4.90625 0.078125 C 4.113281 0.078125 3.398438 -0.0976562 2.765625 -0.453125 C 2.128906 -0.816406 1.628906 -1.320312 1.265625 -1.96875 C 0.910156 -2.613281 0.734375 -3.351562 0.734375 -4.1875 C 0.734375 -5.007812 0.910156 -5.742188 1.265625 -6.390625 C 1.628906 -7.035156 2.128906 -7.535156 2.765625 -7.890625 C 3.398438 -8.253906 4.113281 -8.4375 4.90625 -8.4375 C 5.582031 -8.4375 6.191406 -8.296875 6.734375 -8.015625 C 7.285156 -7.734375 7.734375 -7.320312 8.078125 -6.78125 L 8.078125 -11.796875 Z M 5 -0.921875 C 5.582031 -0.921875 6.109375 -1.054688 6.578125 -1.328125 C 7.046875 -1.597656 7.414062 -1.984375 7.6875 -2.484375 C 7.957031 -2.984375 8.09375 -3.550781 8.09375 -4.1875 C 8.09375 -4.820312 7.957031 -5.390625 7.6875 -5.890625 C 7.414062 -6.390625 7.046875 -6.769531 6.578125 -7.03125 C 6.109375 -7.300781 5.582031 -7.4375 5 -7.4375 C 4.40625 -7.4375 3.867188 -7.300781 3.390625 -7.03125 C 2.921875 -6.769531 2.550781 -6.390625 2.28125 -5.890625 C 2.007812 -5.390625 1.875 -4.820312 1.875 -4.1875 C 1.875 -3.550781 2.007812 -2.984375 2.28125 -2.484375 C 2.550781 -1.984375 2.921875 -1.597656 3.390625 -1.328125 C 3.867188 -1.054688 4.40625 -0.921875 5 -0.921875 Z M 5 -0.921875 "/></g></g></g><g fill="#2c2c2c" fill-opacity="1"><g transform="translate(97.50255, 28.519372)"><g><path d="M 8.609375 -8.359375 L 4.421875 1 C 4.078125 1.78125 3.679688 2.335938 3.234375 2.671875 C 2.796875 3.003906 2.265625 3.171875 1.640625 3.171875 C 1.234375 3.171875 0.851562 3.101562 0.5 2.96875 C 0.15625 2.84375 -0.140625 2.65625 -0.390625 2.40625 L 0.125 1.5625 C 0.550781 1.976562 1.0625 2.1875 1.65625 2.1875 C 2.039062 2.1875 2.363281 2.082031 2.625 1.875 C 2.894531 1.664062 3.148438 1.304688 3.390625 0.796875 L 3.75 -0.015625 L 0.015625 -8.359375 L 1.1875 -8.359375 L 4.34375 -1.25 L 7.484375 -8.359375 Z M 8.609375 -8.359375 "/></g></g></g><g fill="#2c2c2c" fill-opacity="1"><g transform="translate(108.432754, 28.519372)"><g/></g></g><g fill="#2c2c2c" fill-opacity="1"><g transform="translate(114.908381, 28.519372)"><g><path d="M 1.8125 -11.140625 L 2.984375 -11.140625 L 2.984375 -1.015625 L 9.21875 -1.015625 L 9.21875 0 L 1.8125 0 Z M 1.8125 -11.140625 "/></g></g></g><g fill="#2c2c2c" fill-opacity="1"><g transform="translate(126.586319, 28.519372)"><g><path d="M 4.5 -8.4375 C 5.59375 -8.4375 6.429688 -8.160156 7.015625 -7.609375 C 7.597656 -7.066406 7.890625 -6.257812 7.890625 -5.1875 L 7.890625 0 L 6.8125 0 L 6.8125 -1.296875 C 6.550781 -0.867188 6.175781 -0.53125 5.6875 -0.28125 C 5.195312 -0.0390625 4.609375 0.078125 3.921875 0.078125 C 2.992188 0.078125 2.253906 -0.140625 1.703125 -0.578125 C 1.148438 -1.023438 0.875 -1.617188 0.875 -2.359375 C 0.875 -3.066406 1.128906 -3.632812 1.640625 -4.0625 C 2.160156 -4.5 2.984375 -4.71875 4.109375 -4.71875 L 6.765625 -4.71875 L 6.765625 -5.234375 C 6.765625 -5.953125 6.5625 -6.5 6.15625 -6.875 C 5.75 -7.25 5.160156 -7.4375 4.390625 -7.4375 C 3.859375 -7.4375 3.347656 -7.347656 2.859375 -7.171875 C 2.367188 -7.003906 1.953125 -6.765625 1.609375 -6.453125 L 1.09375 -7.296875 C 1.519531 -7.660156 2.03125 -7.941406 2.625 -8.140625 C 3.21875 -8.335938 3.84375 -8.4375 4.5 -8.4375 Z M 4.109375 -0.8125 C 4.742188 -0.8125 5.285156 -0.957031 5.734375 -1.25 C 6.191406 -1.539062 6.535156 -1.960938 6.765625 -2.515625 L 6.765625 -3.875 L 4.140625 -3.875 C 2.703125 -3.875 1.984375 -3.378906 1.984375 -2.390625 C 1.984375 -1.898438 2.171875 -1.515625 2.546875 -1.234375 C 2.921875 -0.953125 3.441406 -0.8125 4.109375 -0.8125 Z M 4.109375 -0.8125 "/></g></g></g><g fill="#2c2c2c" fill-opacity="1"><g transform="translate(138.280169, 28.519372)"><g><path d="M 9.328125 -8.359375 L 9.328125 -1.015625 C 9.328125 0.398438 8.976562 1.453125 8.28125 2.140625 C 7.582031 2.828125 6.535156 3.171875 5.140625 3.171875 C 4.367188 3.171875 3.632812 3.054688 2.9375 2.828125 C 2.238281 2.597656 1.671875 2.28125 1.234375 1.875 L 1.8125 1.015625 C 2.21875 1.378906 2.707031 1.660156 3.28125 1.859375 C 3.863281 2.054688 4.472656 2.15625 5.109375 2.15625 C 6.171875 2.15625 6.945312 1.910156 7.4375 1.421875 C 7.9375 0.929688 8.1875 0.164062 8.1875 -0.875 L 8.1875 -1.9375 C 7.84375 -1.40625 7.382812 -1 6.8125 -0.71875 C 6.25 -0.445312 5.625 -0.3125 4.9375 -0.3125 C 4.144531 -0.3125 3.425781 -0.484375 2.78125 -0.828125 C 2.144531 -1.179688 1.644531 -1.664062 1.28125 -2.28125 C 0.914062 -2.90625 0.734375 -3.609375 0.734375 -4.390625 C 0.734375 -5.171875 0.914062 -5.867188 1.28125 -6.484375 C 1.644531 -7.097656 2.144531 -7.578125 2.78125 -7.921875 C 3.414062 -8.265625 4.132812 -8.4375 4.9375 -8.4375 C 5.644531 -8.4375 6.285156 -8.289062 6.859375 -8 C 7.429688 -7.71875 7.890625 -7.304688 8.234375 -6.765625 L 8.234375 -8.359375 Z M 5.046875 -1.3125 C 5.648438 -1.3125 6.191406 -1.441406 6.671875 -1.703125 C 7.160156 -1.960938 7.539062 -2.328125 7.8125 -2.796875 C 8.082031 -3.265625 8.21875 -3.796875 8.21875 -4.390625 C 8.21875 -4.984375 8.082031 -5.507812 7.8125 -5.96875 C 7.539062 -6.4375 7.164062 -6.796875 6.6875 -7.046875 C 6.207031 -7.304688 5.660156 -7.4375 5.046875 -7.4375 C 4.441406 -7.4375 3.894531 -7.3125 3.40625 -7.0625 C 2.925781 -6.8125 2.550781 -6.453125 2.28125 -5.984375 C 2.007812 -5.515625 1.875 -4.984375 1.875 -4.390625 C 1.875 -3.796875 2.007812 -3.265625 2.28125 -2.796875 C 2.550781 -2.328125 2.925781 -1.960938 3.40625 -1.703125 C 3.894531 -1.441406 4.441406 -1.3125 5.046875 -1.3125 Z M 5.046875 -1.3125 "/></g></g></g><g fill="#2c2c2c" fill-opacity="1"><g transform="translate(151.501298, 28.519372)"><g><path d="M 4.5 -8.4375 C 5.59375 -8.4375 6.429688 -8.160156 7.015625 -7.609375 C 7.597656 -7.066406 7.890625 -6.257812 7.890625 -5.1875 L 7.890625 0 L 6.8125 0 L 6.8125 -1.296875 C 6.550781 -0.867188 6.175781 -0.53125 5.6875 -0.28125 C 5.195312 -0.0390625 4.609375 0.078125 3.921875 0.078125 C 2.992188 0.078125 2.253906 -0.140625 1.703125 -0.578125 C 1.148438 -1.023438 0.875 -1.617188 0.875 -2.359375 C 0.875 -3.066406 1.128906 -3.632812 1.640625 -4.0625 C 2.160156 -4.5 2.984375 -4.71875 4.109375 -4.71875 L 6.765625 -4.71875 L 6.765625 -5.234375 C 6.765625 -5.953125 6.5625 -6.5 6.15625 -6.875 C 5.75 -7.25 5.160156 -7.4375 4.390625 -7.4375 C 3.859375 -7.4375 3.347656 -7.347656 2.859375 -7.171875 C 2.367188 -7.003906 1.953125 -6.765625 1.609375 -6.453125 L 1.09375 -7.296875 C 1.519531 -7.660156 2.03125 -7.941406 2.625 -8.140625 C 3.21875 -8.335938 3.84375 -8.4375 4.5 -8.4375 Z M 4.109375 -0.8125 C 4.742188 -0.8125 5.285156 -0.957031 5.734375 -1.25 C 6.191406 -1.539062 6.535156 -1.960938 6.765625 -2.515625 L 6.765625 -3.875 L 4.140625 -3.875 C 2.703125 -3.875 1.984375 -3.378906 1.984375 -2.390625 C 1.984375 -1.898438 2.171875 -1.515625 2.546875 -1.234375 C 2.921875 -0.953125 3.441406 -0.8125 4.109375 -0.8125 Z M 4.109375 -0.8125 "/></g></g></g><g fill="#2c2c2c" fill-opacity="1"><g transform="translate(163.195148, 28.519372)"><g><path d="M 2.65625 -6.734375 C 2.914062 -7.296875 3.304688 -7.71875 3.828125 -8 C 4.359375 -8.289062 5.015625 -8.4375 5.796875 -8.4375 L 5.796875 -7.328125 L 5.515625 -7.34375 C 4.640625 -7.34375 3.953125 -7.070312 3.453125 -6.53125 C 2.953125 -5.988281 2.703125 -5.234375 2.703125 -4.265625 L 2.703125 0 L 1.578125 0 L 1.578125 -8.359375 L 2.65625 -8.359375 Z M 2.65625 -6.734375 "/></g></g></g><g fill="#2c2c2c" fill-opacity="1"><g transform="translate(171.882152, 28.519372)"><g><path d="M 9.203125 -11.796875 L 9.203125 0 L 8.125 0 L 8.125 -1.65625 C 7.789062 -1.09375 7.34375 -0.660156 6.78125 -0.359375 C 6.226562 -0.0664062 5.601562 0.078125 4.90625 0.078125 C 4.113281 0.078125 3.398438 -0.0976562 2.765625 -0.453125 C 2.128906 -0.816406 1.628906 -1.320312 1.265625 -1.96875 C 0.910156 -2.613281 0.734375 -3.351562 0.734375 -4.1875 C 0.734375 -5.007812 0.910156 -5.742188 1.265625 -6.390625 C 1.628906 -7.035156 2.128906 -7.535156 2.765625 -7.890625 C 3.398438 -8.253906 4.113281 -8.4375 4.90625 -8.4375 C 5.582031 -8.4375 6.191406 -8.296875 6.734375 -8.015625 C 7.285156 -7.734375 7.734375 -7.320312 8.078125 -6.78125 L 8.078125 -11.796875 Z M 5 -0.921875 C 5.582031 -0.921875 6.109375 -1.054688 6.578125 -1.328125 C 7.046875 -1.597656 7.414062 -1.984375 7.6875 -2.484375 C 7.957031 -2.984375 8.09375 -3.550781 8.09375 -4.1875 C 8.09375 -4.820312 7.957031 -5.390625 7.6875 -5.890625 C 7.414062 -6.390625 7.046875 -6.769531 6.578125 -7.03125 C 6.109375 -7.300781 5.582031 -7.4375 5 -7.4375 C 4.40625 -7.4375 3.867188 -7.300781 3.390625 -7.03125 C 2.921875 -6.769531 2.550781 -6.390625 2.28125 -5.890625 C 2.007812 -5.390625 1.875 -4.820312 1.875 -4.1875 C 1.875 -3.550781 2.007812 -2.984375 2.28125 -2.484375 C 2.550781 -1.984375 2.921875 -1.597656 3.390625 -1.328125 C 3.867188 -1.054688 4.40625 -0.921875 5 -0.921875 Z M 5 -0.921875 "/></g></g></g><g fill="#2c2c2c" fill-opacity="1"><g transform="translate(184.976009, 28.519372)"><g><path d="M 8.859375 -3.828125 L 1.859375 -3.828125 C 1.921875 -2.960938 2.253906 -2.257812 2.859375 -1.71875 C 3.460938 -1.1875 4.226562 -0.921875 5.15625 -0.921875 C 5.675781 -0.921875 6.148438 -1.015625 6.578125 -1.203125 C 7.015625 -1.390625 7.394531 -1.660156 7.71875 -2.015625 L 8.34375 -1.28125 C 7.976562 -0.84375 7.515625 -0.503906 6.953125 -0.265625 C 6.398438 -0.0351562 5.789062 0.078125 5.125 0.078125 C 4.257812 0.078125 3.492188 -0.101562 2.828125 -0.46875 C 2.171875 -0.832031 1.65625 -1.335938 1.28125 -1.984375 C 0.914062 -2.628906 0.734375 -3.363281 0.734375 -4.1875 C 0.734375 -5 0.910156 -5.726562 1.265625 -6.375 C 1.617188 -7.019531 2.101562 -7.523438 2.71875 -7.890625 C 3.34375 -8.253906 4.039062 -8.4375 4.8125 -8.4375 C 5.59375 -8.4375 6.289062 -8.253906 6.90625 -7.890625 C 7.519531 -7.523438 8 -7.019531 8.34375 -6.375 C 8.695312 -5.738281 8.875 -5.007812 8.875 -4.1875 Z M 4.8125 -7.453125 C 4.007812 -7.453125 3.332031 -7.195312 2.78125 -6.6875 C 2.238281 -6.175781 1.929688 -5.503906 1.859375 -4.671875 L 7.796875 -4.671875 C 7.722656 -5.503906 7.410156 -6.175781 6.859375 -6.6875 C 6.316406 -7.195312 5.632812 -7.453125 4.8125 -7.453125 Z M 4.8125 -7.453125 "/></g></g></g></svg>